<svg width="512" height="512" viewBox="0 0 512 512" fill="none" xmlns="http://www.w3.org/2000/svg">
<rect width="512" height="512" fill="white"/>
<g clip-path="url(#clip0_995_556)">
<path d="M127.1 206.85H159.5V300H127.1V206.85ZM222.727 301.89C213.007 301.89 204.367 300.54 196.807 297.84C189.247 295.05 183.262 291.045 178.852 285.825C174.532 280.605 172.372 274.305 172.372 266.925C172.372 259.185 174.532 252.705 178.852 247.485C183.262 242.265 189.247 238.35 196.807 235.74C204.367 233.13 213.007 231.825 222.727 231.825C230.827 231.825 238.117 232.68 244.597 234.39C251.077 236.01 256.612 238.395 261.202 241.545C265.792 244.605 269.302 248.295 271.732 252.615C274.162 256.935 275.377 261.705 275.377 266.925C275.377 272.145 274.162 276.915 271.732 281.235C269.302 285.465 265.792 289.155 261.202 292.305C256.612 295.365 251.077 297.75 244.597 299.46C238.117 301.08 230.827 301.89 222.727 301.89ZM234.877 281.37C241.717 281.37 247.972 280.965 253.642 280.155C259.402 279.255 263.992 277.77 267.412 275.7C270.922 273.63 272.677 270.705 272.677 266.925C272.677 263.055 270.922 260.085 267.412 258.015C263.992 255.945 259.402 254.505 253.642 253.695C247.972 252.885 241.717 252.48 234.877 252.48C225.697 252.48 218.587 253.695 213.547 256.125C208.507 258.465 205.987 262.065 205.987 266.925C205.987 270.075 207.112 272.73 209.362 274.89C211.612 277.05 214.897 278.67 219.217 279.75C223.537 280.83 228.757 281.37 234.877 281.37ZM272.677 206.85H305.077V300H274.567C274.207 297.93 273.802 294.6 273.352 290.01C272.902 285.33 272.677 280.11 272.677 274.35V206.85Z" fill="#0F172A"/>
<path d="M322.075 233.85H354.475V300H322.075V233.85ZM389.305 258.825C383.455 258.825 378.1 259.365 373.24 260.445C368.38 261.525 364.24 262.83 360.82 264.36C357.4 265.8 354.835 267.24 353.125 268.68L352.855 262.2C353.125 260.31 353.845 258.105 355.015 255.585C356.185 252.975 357.76 250.32 359.74 247.62C361.72 244.83 364.15 242.265 367.03 239.925C369.91 237.495 373.195 235.56 376.885 234.12C380.665 232.59 384.805 231.825 389.305 231.825V258.825Z" fill="#1D9E75"/>
</g>
<defs>
<clipPath id="clip0_995_556">
<rect width="274" height="162" fill="white" transform="translate(119 175)"/>
</clipPath>
</defs>
</svg>
