<svg width="512" height="512" viewBox="0 0 512 512" fill="none" xmlns="http://www.w3.org/2000/svg">
<rect width="512" height="512" fill="white"/>
<g clip-path="url(#clip0_995_564)">
<path d="M160.5 220H184.5V289H160.5V220ZM231.335 290.4C224.135 290.4 217.735 289.4 212.135 287.4C206.535 285.333 202.102 282.367 198.835 278.5C195.635 274.633 194.035 269.967 194.035 264.5C194.035 258.767 195.635 253.967 198.835 250.1C202.102 246.233 206.535 243.333 212.135 241.4C217.735 239.467 224.135 238.5 231.335 238.5C237.335 238.5 242.735 239.133 247.535 240.4C252.335 241.6 256.435 243.367 259.835 245.7C263.235 247.967 265.835 250.7 267.635 253.9C269.435 257.1 270.335 260.633 270.335 264.5C270.335 268.367 269.435 271.9 267.635 275.1C265.835 278.233 263.235 280.967 259.835 283.3C256.435 285.567 252.335 287.333 247.535 288.6C242.735 289.8 237.335 290.4 231.335 290.4ZM240.335 275.2C245.402 275.2 250.035 274.9 254.235 274.3C258.502 273.633 261.902 272.533 264.435 271C267.035 269.467 268.335 267.3 268.335 264.5C268.335 261.633 267.035 259.433 264.435 257.9C261.902 256.367 258.502 255.3 254.235 254.7C250.035 254.1 245.402 253.8 240.335 253.8C233.535 253.8 228.268 254.7 224.535 256.5C220.802 258.233 218.935 260.9 218.935 264.5C218.935 266.833 219.768 268.8 221.435 270.4C223.102 272 225.535 273.2 228.735 274C231.935 274.8 235.802 275.2 240.335 275.2ZM268.335 220H292.335V289H269.735C269.468 287.467 269.168 285 268.835 281.6C268.502 278.133 268.335 274.267 268.335 270V220Z" fill="#0F172A"/>
<path d="M305 240H329V289H305V240ZM354.8 258.5C350.467 258.5 346.5 258.9 342.9 259.7C339.3 260.5 336.233 261.467 333.7 262.6C331.167 263.667 329.267 264.733 328 265.8L327.8 261C328 259.6 328.533 257.967 329.4 256.1C330.267 254.167 331.433 252.2 332.9 250.2C334.367 248.133 336.167 246.233 338.3 244.5C340.433 242.7 342.867 241.267 345.6 240.2C348.4 239.067 351.467 238.5 354.8 238.5V258.5Z" fill="#1D9E75"/>
</g>
<defs>
<clipPath id="clip0_995_564">
<rect width="203" height="120" fill="white" transform="translate(154.5 196)"/>
</clipPath>
</defs>
</svg>
