<svg width="32" height="32" viewBox="0 0 32 32" fill="none" xmlns="http://www.w3.org/2000/svg">
<rect width="32" height="32" fill="white"/>
<g clip-path="url(#clip0_995_584)">
<path d="M4.22 11.72H7.1V20H4.22V11.72ZM12.7202 20.168C11.8562 20.168 11.0882 20.048 10.4162 19.808C9.74422 19.56 9.21222 19.204 8.82022 18.74C8.43622 18.276 8.24422 17.716 8.24422 17.06C8.24422 16.372 8.43622 15.796 8.82022 15.332C9.21222 14.868 9.74422 14.52 10.4162 14.288C11.0882 14.056 11.8562 13.94 12.7202 13.94C13.4402 13.94 14.0882 14.016 14.6642 14.168C15.2402 14.312 15.7322 14.524 16.1402 14.804C16.5482 15.076 16.8602 15.404 17.0762 15.788C17.2922 16.172 17.4002 16.596 17.4002 17.06C17.4002 17.524 17.2922 17.948 17.0762 18.332C16.8602 18.708 16.5482 19.036 16.1402 19.316C15.7322 19.588 15.2402 19.8 14.6642 19.952C14.0882 20.096 13.4402 20.168 12.7202 20.168ZM13.8002 18.344C14.4082 18.344 14.9642 18.308 15.4682 18.236C15.9802 18.156 16.3882 18.024 16.6922 17.84C17.0042 17.656 17.1602 17.396 17.1602 17.06C17.1602 16.716 17.0042 16.452 16.6922 16.268C16.3882 16.084 15.9802 15.956 15.4682 15.884C14.9642 15.812 14.4082 15.776 13.8002 15.776C12.9842 15.776 12.3522 15.884 11.9042 16.1C11.4562 16.308 11.2322 16.628 11.2322 17.06C11.2322 17.34 11.3322 17.576 11.5322 17.768C11.7322 17.96 12.0242 18.104 12.4082 18.2C12.7922 18.296 13.2562 18.344 13.8002 18.344ZM17.1602 11.72H20.0402V20H17.3282C17.2962 19.816 17.2602 19.52 17.2202 19.112C17.1802 18.696 17.1602 18.232 17.1602 17.72V11.72Z" fill="#0F172A"/>
<path d="M22.04 14.12H24.92V20H22.04V14.12ZM28.016 16.34C27.496 16.34 27.02 16.388 26.588 16.484C26.156 16.58 25.788 16.696 25.484 16.832C25.18 16.96 24.952 17.088 24.8 17.216L24.776 16.64C24.8 16.472 24.864 16.276 24.968 16.052C25.072 15.82 25.212 15.584 25.388 15.344C25.564 15.096 25.78 14.868 26.036 14.66C26.292 14.444 26.584 14.272 26.912 14.144C27.248 14.008 27.616 13.94 28.016 13.94V16.34Z" fill="#1D9E75"/>
</g>
<defs>
<clipPath id="clip0_995_584">
<rect width="25" height="14" fill="white" transform="translate(3.5 9)"/>
</clipPath>
</defs>
</svg>
